<?xml version="1.0" encoding="UTF-8" standalone="no"?>
<!DOCTYPE svg PUBLIC "-//W3C//DTD SVG 1.1//EN"
 "http://www.w3.org/Graphics/SVG/1.1/DTD/svg11.dtd">
<!-- Generated by graphviz version 2.44.0 (20200408.0750)
 -->
<!-- Title: dependency&#45;cruiser output Pages: 1 -->
<svg width="441pt" height="594pt"
 viewBox="0.00 0.00 441.00 594.00" xmlns="http://www.w3.org/2000/svg" xmlns:xlink="http://www.w3.org/1999/xlink">
<g id="graph0" class="graph" transform="scale(1 1) rotate(0) translate(4 590)">
<title>dependency&#45;cruiser output</title>
<polygon fill="white" stroke="transparent" points="-4,4 -4,-590 437,-590 437,4 -4,4"/>
<g id="clust1" class="cluster">
<title>cluster_src</title>
<path fill="#ffffff" stroke="black" stroke-width="2" d="M20,-8C20,-8 413,-8 413,-8 419,-8 425,-14 425,-20 425,-20 425,-566 425,-566 425,-572 419,-578 413,-578 413,-578 20,-578 20,-578 14,-578 8,-572 8,-566 8,-566 8,-20 8,-20 8,-14 14,-8 20,-8"/>
<text text-anchor="middle" x="216.5" y="-566.8" font-family="Helvetica,sans-Serif" font-weight="bold" font-size="9.00">src</text>
</g>
<g id="clust2" class="cluster">
<title>cluster_src/components</title>
<path fill="#ffffff" stroke="black" stroke-width="2" d="M28,-16C28,-16 405,-16 405,-16 411,-16 417,-22 417,-28 417,-28 417,-540 417,-540 417,-546 411,-552 405,-552 405,-552 28,-552 28,-552 22,-552 16,-546 16,-540 16,-540 16,-28 16,-28 16,-22 22,-16 28,-16"/>
<text text-anchor="middle" x="216.5" y="-540.8" font-family="Helvetica,sans-Serif" font-weight="bold" font-size="9.00">components</text>
</g>
<g id="clust3" class="cluster">
<title>cluster_src/components/ArtistCard</title>
<path fill="#ffffff" stroke="black" stroke-width="2" d="M36,-444C36,-444 301,-444 301,-444 307,-444 313,-450 313,-456 313,-456 313,-514 313,-514 313,-520 307,-526 301,-526 301,-526 36,-526 36,-526 30,-526 24,-520 24,-514 24,-514 24,-456 24,-456 24,-450 30,-444 36,-444"/>
<text text-anchor="middle" x="168.5" y="-514.8" font-family="Helvetica,sans-Serif" font-weight="bold" font-size="9.00">ArtistCard</text>
</g>
<g id="clust4" class="cluster">
<title>cluster_src/components/Footer</title>
<path fill="#ffffff" stroke="black" stroke-width="2" d="M46.5,-324C46.5,-324 304,-324 304,-324 310,-324 316,-330 316,-336 316,-336 316,-364 316,-364 316,-370 310,-376 304,-376 304,-376 46.5,-376 46.5,-376 40.5,-376 34.5,-370 34.5,-364 34.5,-364 34.5,-336 34.5,-336 34.5,-330 40.5,-324 46.5,-324"/>
<text text-anchor="middle" x="175.25" y="-364.8" font-family="Helvetica,sans-Serif" font-weight="bold" font-size="9.00">Footer</text>
</g>
<g id="clust5" class="cluster">
<title>cluster_src/components/Header</title>
<path fill="#ffffff" stroke="black" stroke-width="2" d="M46.5,-204C46.5,-204 306.5,-204 306.5,-204 312.5,-204 318.5,-210 318.5,-216 318.5,-216 318.5,-244 318.5,-244 318.5,-250 312.5,-256 306.5,-256 306.5,-256 46.5,-256 46.5,-256 40.5,-256 34.5,-250 34.5,-244 34.5,-244 34.5,-216 34.5,-216 34.5,-210 40.5,-204 46.5,-204"/>
<text text-anchor="middle" x="176.5" y="-244.8" font-family="Helvetica,sans-Serif" font-weight="bold" font-size="9.00">Header</text>
</g>
<g id="clust6" class="cluster">
<title>cluster_src/components/LoadingScreen</title>
<path fill="#ffffff" stroke="black" stroke-width="2" d="M46.5,-144C46.5,-144 209,-144 209,-144 215,-144 221,-150 221,-156 221,-156 221,-184 221,-184 221,-190 215,-196 209,-196 209,-196 46.5,-196 46.5,-196 40.5,-196 34.5,-190 34.5,-184 34.5,-184 34.5,-156 34.5,-156 34.5,-150 40.5,-144 46.5,-144"/>
<text text-anchor="middle" x="127.75" y="-184.8" font-family="Helvetica,sans-Serif" font-weight="bold" font-size="9.00">LoadingScreen</text>
</g>
<g id="clust7" class="cluster">
<title>cluster_src/components/NavBar</title>
<path fill="#ffffff" stroke="black" stroke-width="2" d="M253.5,-264C253.5,-264 397,-264 397,-264 403,-264 409,-270 409,-276 409,-276 409,-304 409,-304 409,-310 403,-316 397,-316 397,-316 253.5,-316 253.5,-316 247.5,-316 241.5,-310 241.5,-304 241.5,-304 241.5,-276 241.5,-276 241.5,-270 247.5,-264 253.5,-264"/>
<text text-anchor="middle" x="325.25" y="-304.8" font-family="Helvetica,sans-Serif" font-weight="bold" font-size="9.00">NavBar</text>
</g>
<g id="clust8" class="cluster">
<title>cluster_src/components/Rrss</title>
<path fill="#ffffff" stroke="black" stroke-width="2" d="M253.5,-384C253.5,-384 393.5,-384 393.5,-384 399.5,-384 405.5,-390 405.5,-396 405.5,-396 405.5,-424 405.5,-424 405.5,-430 399.5,-436 393.5,-436 393.5,-436 253.5,-436 253.5,-436 247.5,-436 241.5,-430 241.5,-424 241.5,-424 241.5,-396 241.5,-396 241.5,-390 247.5,-384 253.5,-384"/>
<text text-anchor="middle" x="323.5" y="-424.8" font-family="Helvetica,sans-Serif" font-weight="bold" font-size="9.00">Rrss</text>
</g>
<g id="clust9" class="cluster">
<title>cluster_src/components/SimpleMenu</title>
<path fill="#ffffff" stroke="black" stroke-width="2" d="M46.5,-84C46.5,-84 317,-84 317,-84 323,-84 329,-90 329,-96 329,-96 329,-124 329,-124 329,-130 323,-136 317,-136 317,-136 46.5,-136 46.5,-136 40.5,-136 34.5,-130 34.5,-124 34.5,-124 34.5,-96 34.5,-96 34.5,-90 40.5,-84 46.5,-84"/>
<text text-anchor="middle" x="181.75" y="-124.8" font-family="Helvetica,sans-Serif" font-weight="bold" font-size="9.00">SimpleMenu</text>
</g>
<g id="clust10" class="cluster">
<title>cluster_src/components/VideoRelease</title>
<path fill="#ffffff" stroke="black" stroke-width="2" d="M46.5,-24C46.5,-24 320,-24 320,-24 326,-24 332,-30 332,-36 332,-36 332,-64 332,-64 332,-70 326,-76 320,-76 320,-76 46.5,-76 46.5,-76 40.5,-76 34.5,-70 34.5,-64 34.5,-64 34.5,-36 34.5,-36 34.5,-30 40.5,-24 46.5,-24"/>
<text text-anchor="middle" x="183.25" y="-64.8" font-family="Helvetica,sans-Serif" font-weight="bold" font-size="9.00">VideoRelease</text>
</g>
<!-- src/components/ArtistCard/Artist.jsx -->
<g id="node1" class="node">
<title>src/components/ArtistCard/Artist.jsx</title>
<g id="a_node1"><a xlink:href="src/components/ArtistCard/Artist.jsx" xlink:title="Artist.jsx">
<path fill="#ffff77" stroke="black" d="M187.5,-470C187.5,-470 145.5,-470 145.5,-470 142.5,-470 139.5,-467 139.5,-464 139.5,-464 139.5,-458 139.5,-458 139.5,-455 142.5,-452 145.5,-452 145.5,-452 187.5,-452 187.5,-452 190.5,-452 193.5,-455 193.5,-458 193.5,-458 193.5,-464 193.5,-464 193.5,-467 190.5,-470 187.5,-470"/>
<text text-anchor="middle" x="166.5" y="-458.8" font-family="Helvetica,sans-Serif" font-size="9.00">Artist.jsx</text>
</a>
</g>
</g>
<!-- src/components/ArtistCard/Artist.scss -->
<g id="node2" class="node">
<title>src/components/ArtistCard/Artist.scss</title>
<g id="a_node2"><a xlink:href="src/components/ArtistCard/Artist.scss" xlink:title="Artist.scss">
<path fill="#ffffcc" stroke="black" d="M299,-470C299,-470 254,-470 254,-470 251,-470 248,-467 248,-464 248,-464 248,-458 248,-458 248,-455 251,-452 254,-452 254,-452 299,-452 299,-452 302,-452 305,-455 305,-458 305,-458 305,-464 305,-464 305,-467 302,-470 299,-470"/>
<text text-anchor="middle" x="276.5" y="-458.8" font-family="Helvetica,sans-Serif" font-size="9.00">Artist.scss</text>
</a>
</g>
</g>
<!-- src/components/ArtistCard/Artist.jsx&#45;&gt;src/components/ArtistCard/Artist.scss -->
<g id="edge1" class="edge">
<title>src/components/ArtistCard/Artist.jsx&#45;&gt;src/components/ArtistCard/Artist.scss</title>
<path fill="none" stroke="#000000" stroke-width="2" stroke-opacity="0.200000" d="M193.64,-461C208.08,-461 226.18,-461 241.69,-461"/>
<polygon fill="#000000" fill-opacity="0.200000" stroke="#000000" stroke-width="2" stroke-opacity="0.200000" points="241.71,-463.1 247.71,-461 241.71,-458.9 241.71,-463.1"/>
</g>
<!-- src/components/ArtistCard/ArtistCard.scss -->
<g id="node3" class="node">
<title>src/components/ArtistCard/ArtistCard.scss</title>
<g id="a_node3"><a xlink:href="src/components/ArtistCard/ArtistCard.scss" xlink:title="ArtistCard.scss">
<path fill="#ffffcc" stroke="black" d="M199,-500C199,-500 134,-500 134,-500 131,-500 128,-497 128,-494 128,-494 128,-488 128,-488 128,-485 131,-482 134,-482 134,-482 199,-482 199,-482 202,-482 205,-485 205,-488 205,-488 205,-494 205,-494 205,-497 202,-500 199,-500"/>
<text text-anchor="middle" x="166.5" y="-488.8" font-family="Helvetica,sans-Serif" font-size="9.00">ArtistCard.scss</text>
</a>
</g>
</g>
<!-- src/components/ArtistCard/ArtistsCard.jsx -->
<g id="node4" class="node">
<title>src/components/ArtistCard/ArtistsCard.jsx</title>
<g id="a_node4"><a xlink:href="src/components/ArtistCard/ArtistsCard.jsx" xlink:title="ArtistsCard.jsx">
<path fill="#ffff77" stroke="black" d="M101,-500C101,-500 38,-500 38,-500 35,-500 32,-497 32,-494 32,-494 32,-488 32,-488 32,-485 35,-482 38,-482 38,-482 101,-482 101,-482 104,-482 107,-485 107,-488 107,-488 107,-494 107,-494 107,-497 104,-500 101,-500"/>
<text text-anchor="middle" x="69.5" y="-488.8" font-family="Helvetica,sans-Serif" font-size="9.00">ArtistsCard.jsx</text>
</a>
</g>
</g>
<!-- src/components/ArtistCard/ArtistsCard.jsx&#45;&gt;src/components/ArtistCard/Artist.jsx -->
<g id="edge2" class="edge">
<title>src/components/ArtistCard/ArtistsCard.jsx&#45;&gt;src/components/ArtistCard/Artist.jsx</title>
<path fill="none" stroke="#000000" stroke-width="2" stroke-opacity="0.200000" d="M99,-482C109.79,-478.59 122.15,-474.69 133.26,-471.18"/>
<polygon fill="#000000" fill-opacity="0.200000" stroke="#000000" stroke-width="2" stroke-opacity="0.200000" points="134.2,-473.09 139.29,-469.28 132.93,-469.08 134.2,-473.09"/>
</g>
<!-- src/components/ArtistCard/ArtistsCard.jsx&#45;&gt;src/components/ArtistCard/ArtistCard.scss -->
<g id="edge3" class="edge">
<title>src/components/ArtistCard/ArtistsCard.jsx&#45;&gt;src/components/ArtistCard/ArtistCard.scss</title>
<path fill="none" stroke="#000000" stroke-width="2" stroke-opacity="0.200000" d="M107.23,-491C112,-491 116.93,-491 121.8,-491"/>
<polygon fill="#000000" fill-opacity="0.200000" stroke="#000000" stroke-width="2" stroke-opacity="0.200000" points="121.93,-493.1 127.93,-491 121.93,-488.9 121.93,-493.1"/>
</g>
<!-- src/components/ArtistCard/index.jsx -->
<g id="node5" class="node">
<title>src/components/ArtistCard/index.jsx</title>
<g id="a_node5"><a xlink:href="src/components/ArtistCard/index.jsx" xlink:title="index.jsx">
<path fill="#ccffcc" stroke="black" d="M90.5,-470C90.5,-470 48.5,-470 48.5,-470 45.5,-470 42.5,-467 42.5,-464 42.5,-464 42.5,-458 42.5,-458 42.5,-455 45.5,-452 48.5,-452 48.5,-452 90.5,-452 90.5,-452 93.5,-452 96.5,-455 96.5,-458 96.5,-458 96.5,-464 96.5,-464 96.5,-467 93.5,-470 90.5,-470"/>
<text text-anchor="middle" x="69.5" y="-458.8" font-family="Helvetica,sans-Serif" font-size="9.00">index.jsx</text>
</a>
</g>
</g>
<!-- src/components/Footer/Footer.jsx -->
<g id="node6" class="node">
<title>src/components/Footer/Footer.jsx</title>
<g id="a_node6"><a xlink:href="src/components/Footer/Footer.jsx" xlink:title="Footer.jsx">
<path fill="#ffff77" stroke="black" d="M188.5,-350C188.5,-350 144.5,-350 144.5,-350 141.5,-350 138.5,-347 138.5,-344 138.5,-344 138.5,-338 138.5,-338 138.5,-335 141.5,-332 144.5,-332 144.5,-332 188.5,-332 188.5,-332 191.5,-332 194.5,-335 194.5,-338 194.5,-338 194.5,-344 194.5,-344 194.5,-347 191.5,-350 188.5,-350"/>
<text text-anchor="middle" x="166.5" y="-338.8" font-family="Helvetica,sans-Serif" font-size="9.00">Footer.jsx</text>
</a>
</g>
</g>
<!-- src/components/Rrss/index.jsx -->
<g id="node7" class="node">
<title>src/components/Rrss/index.jsx</title>
<g id="a_node7"><a xlink:href="src/components/Rrss/index.jsx" xlink:title="index.jsx">
<path fill="#ffff77" stroke="black" d="M297.5,-410C297.5,-410 255.5,-410 255.5,-410 252.5,-410 249.5,-407 249.5,-404 249.5,-404 249.5,-398 249.5,-398 249.5,-395 252.5,-392 255.5,-392 255.5,-392 297.5,-392 297.5,-392 300.5,-392 303.5,-395 303.5,-398 303.5,-398 303.5,-404 303.5,-404 303.5,-407 300.5,-410 297.5,-410"/>
<text text-anchor="middle" x="276.5" y="-398.8" font-family="Helvetica,sans-Serif" font-size="9.00">index.jsx</text>
</a>
</g>
</g>
<!-- src/components/Footer/Footer.jsx&#45;&gt;src/components/Rrss/index.jsx -->
<g id="edge4" class="edge">
<title>src/components/Footer/Footer.jsx&#45;&gt;src/components/Rrss/index.jsx</title>
<path fill="none" stroke="#000000" stroke-width="2" stroke-opacity="0.200000" d="M181.4,-350.21C193.7,-358.2 212.24,-369.89 229,-379 235.5,-382.53 242.66,-386.08 249.37,-389.26"/>
<polygon fill="#000000" fill-opacity="0.200000" stroke="#000000" stroke-width="2" stroke-opacity="0.200000" points="248.56,-391.2 254.88,-391.85 250.34,-387.4 248.56,-391.2"/>
</g>
<!-- src/components/Footer/Footer.scss -->
<g id="node8" class="node">
<title>src/components/Footer/Footer.scss</title>
<g id="a_node8"><a xlink:href="src/components/Footer/Footer.scss" xlink:title="Footer.scss">
<path fill="#ffffcc" stroke="black" d="M302,-350C302,-350 251,-350 251,-350 248,-350 245,-347 245,-344 245,-344 245,-338 245,-338 245,-335 248,-332 251,-332 251,-332 302,-332 302,-332 305,-332 308,-335 308,-338 308,-338 308,-344 308,-344 308,-347 305,-350 302,-350"/>
<text text-anchor="middle" x="276.5" y="-338.8" font-family="Helvetica,sans-Serif" font-size="9.00">Footer.scss</text>
</a>
</g>
</g>
<!-- src/components/Footer/Footer.jsx&#45;&gt;src/components/Footer/Footer.scss -->
<g id="edge5" class="edge">
<title>src/components/Footer/Footer.jsx&#45;&gt;src/components/Footer/Footer.scss</title>
<path fill="none" stroke="#000000" stroke-width="2" stroke-opacity="0.200000" d="M194.75,-341C208.09,-341 224.35,-341 238.77,-341"/>
<polygon fill="#000000" fill-opacity="0.200000" stroke="#000000" stroke-width="2" stroke-opacity="0.200000" points="238.82,-343.1 244.82,-341 238.82,-338.9 238.82,-343.1"/>
</g>
<!-- src/components/Rrss/Rrss.jsx -->
<g id="node17" class="node">
<title>src/components/Rrss/Rrss.jsx</title>
<g id="a_node17"><a xlink:href="src/components/Rrss/Rrss.jsx" xlink:title="Rrss.jsx">
<path fill="#ffff77" stroke="black" d="M391.5,-410C391.5,-410 349.5,-410 349.5,-410 346.5,-410 343.5,-407 343.5,-404 343.5,-404 343.5,-398 343.5,-398 343.5,-395 346.5,-392 349.5,-392 349.5,-392 391.5,-392 391.5,-392 394.5,-392 397.5,-395 397.5,-398 397.5,-398 397.5,-404 397.5,-404 397.5,-407 394.5,-410 391.5,-410"/>
<text text-anchor="middle" x="370.5" y="-398.8" font-family="Helvetica,sans-Serif" font-size="9.00">Rrss.jsx</text>
</a>
</g>
</g>
<!-- src/components/Rrss/index.jsx&#45;&gt;src/components/Rrss/Rrss.jsx -->
<g id="edge12" class="edge">
<title>src/components/Rrss/index.jsx&#45;&gt;src/components/Rrss/Rrss.jsx</title>
<path fill="none" stroke="#000000" stroke-width="2" stroke-opacity="0.200000" d="M303.62,-401C314.01,-401 326.08,-401 337.02,-401"/>
<polygon fill="#000000" fill-opacity="0.200000" stroke="#000000" stroke-width="2" stroke-opacity="0.200000" points="337.32,-403.1 343.32,-401 337.32,-398.9 337.32,-403.1"/>
</g>
<!-- src/components/Footer/index.jsx -->
<g id="node9" class="node">
<title>src/components/Footer/index.jsx</title>
<g id="a_node9"><a xlink:href="src/components/Footer/index.jsx" xlink:title="index.jsx">
<path fill="#ffff77" stroke="black" d="M90.5,-350C90.5,-350 48.5,-350 48.5,-350 45.5,-350 42.5,-347 42.5,-344 42.5,-344 42.5,-338 42.5,-338 42.5,-335 45.5,-332 48.5,-332 48.5,-332 90.5,-332 90.5,-332 93.5,-332 96.5,-335 96.5,-338 96.5,-338 96.5,-344 96.5,-344 96.5,-347 93.5,-350 90.5,-350"/>
<text text-anchor="middle" x="69.5" y="-338.8" font-family="Helvetica,sans-Serif" font-size="9.00">index.jsx</text>
</a>
</g>
</g>
<!-- src/components/Footer/index.jsx&#45;&gt;src/components/Footer/Footer.jsx -->
<g id="edge6" class="edge">
<title>src/components/Footer/index.jsx&#45;&gt;src/components/Footer/Footer.jsx</title>
<path fill="none" stroke="#000000" stroke-width="2" stroke-opacity="0.200000" d="M96.71,-341C107.65,-341 120.48,-341 132.08,-341"/>
<polygon fill="#000000" fill-opacity="0.200000" stroke="#000000" stroke-width="2" stroke-opacity="0.200000" points="132.38,-343.1 138.38,-341 132.38,-338.9 132.38,-343.1"/>
</g>
<!-- src/components/Header/Header.jsx -->
<g id="node10" class="node">
<title>src/components/Header/Header.jsx</title>
<g id="a_node10"><a xlink:href="src/components/Header/Header.jsx" xlink:title="Header.jsx">
<path fill="#ffff77" stroke="black" d="M191,-230C191,-230 142,-230 142,-230 139,-230 136,-227 136,-224 136,-224 136,-218 136,-218 136,-215 139,-212 142,-212 142,-212 191,-212 191,-212 194,-212 197,-215 197,-218 197,-218 197,-224 197,-224 197,-227 194,-230 191,-230"/>
<text text-anchor="middle" x="166.5" y="-218.8" font-family="Helvetica,sans-Serif" font-size="9.00">Header.jsx</text>
</a>
</g>
</g>
<!-- src/components/NavBar/index.jsx -->
<g id="node11" class="node">
<title>src/components/NavBar/index.jsx</title>
<g id="a_node11"><a xlink:href="src/components/NavBar/index.jsx" xlink:title="index.jsx">
<path fill="#ffff77" stroke="black" d="M297.5,-290C297.5,-290 255.5,-290 255.5,-290 252.5,-290 249.5,-287 249.5,-284 249.5,-284 249.5,-278 249.5,-278 249.5,-275 252.5,-272 255.5,-272 255.5,-272 297.5,-272 297.5,-272 300.5,-272 303.5,-275 303.5,-278 303.5,-278 303.5,-284 303.5,-284 303.5,-287 300.5,-290 297.5,-290"/>
<text text-anchor="middle" x="276.5" y="-278.8" font-family="Helvetica,sans-Serif" font-size="9.00">index.jsx</text>
</a>
</g>
</g>
<!-- src/components/Header/Header.jsx&#45;&gt;src/components/NavBar/index.jsx -->
<g id="edge7" class="edge">
<title>src/components/Header/Header.jsx&#45;&gt;src/components/NavBar/index.jsx</title>
<path fill="none" stroke="#000000" stroke-width="2" stroke-opacity="0.200000" d="M181.4,-230.21C193.7,-238.2 212.24,-249.89 229,-259 235.5,-262.53 242.66,-266.08 249.37,-269.26"/>
<polygon fill="#000000" fill-opacity="0.200000" stroke="#000000" stroke-width="2" stroke-opacity="0.200000" points="248.56,-271.2 254.88,-271.85 250.34,-267.4 248.56,-271.2"/>
</g>
<!-- src/components/Header/Header.scss -->
<g id="node12" class="node">
<title>src/components/Header/Header.scss</title>
<g id="a_node12"><a xlink:href="src/components/Header/Header.scss" xlink:title="Header.scss">
<path fill="#ffffcc" stroke="black" d="M304.5,-230C304.5,-230 248.5,-230 248.5,-230 245.5,-230 242.5,-227 242.5,-224 242.5,-224 242.5,-218 242.5,-218 242.5,-215 245.5,-212 248.5,-212 248.5,-212 304.5,-212 304.5,-212 307.5,-212 310.5,-215 310.5,-218 310.5,-218 310.5,-224 310.5,-224 310.5,-227 307.5,-230 304.5,-230"/>
<text text-anchor="middle" x="276.5" y="-218.8" font-family="Helvetica,sans-Serif" font-size="9.00">Header.scss</text>
</a>
</g>
</g>
<!-- src/components/Header/Header.jsx&#45;&gt;src/components/Header/Header.scss -->
<g id="edge8" class="edge">
<title>src/components/Header/Header.jsx&#45;&gt;src/components/Header/Header.scss</title>
<path fill="none" stroke="#000000" stroke-width="2" stroke-opacity="0.200000" d="M197.01,-221C209.03,-221 223.11,-221 236,-221"/>
<polygon fill="#000000" fill-opacity="0.200000" stroke="#000000" stroke-width="2" stroke-opacity="0.200000" points="236.22,-223.1 242.22,-221 236.22,-218.9 236.22,-223.1"/>
</g>
<!-- src/components/NavBar/NavBar.jsx -->
<g id="node16" class="node">
<title>src/components/NavBar/NavBar.jsx</title>
<g id="a_node16"><a xlink:href="src/components/NavBar/NavBar.jsx" xlink:title="NavBar.jsx">
<path fill="#ffff77" stroke="black" d="M395,-290C395,-290 346,-290 346,-290 343,-290 340,-287 340,-284 340,-284 340,-278 340,-278 340,-275 343,-272 346,-272 346,-272 395,-272 395,-272 398,-272 401,-275 401,-278 401,-278 401,-284 401,-284 401,-287 398,-290 395,-290"/>
<text text-anchor="middle" x="370.5" y="-278.8" font-family="Helvetica,sans-Serif" font-size="9.00">NavBar.jsx</text>
</a>
</g>
</g>
<!-- src/components/NavBar/index.jsx&#45;&gt;src/components/NavBar/NavBar.jsx -->
<g id="edge11" class="edge">
<title>src/components/NavBar/index.jsx&#45;&gt;src/components/NavBar/NavBar.jsx</title>
<path fill="none" stroke="#000000" stroke-width="2" stroke-opacity="0.200000" d="M303.62,-281C312.94,-281 323.62,-281 333.63,-281"/>
<polygon fill="#000000" fill-opacity="0.200000" stroke="#000000" stroke-width="2" stroke-opacity="0.200000" points="333.75,-283.1 339.75,-281 333.75,-278.9 333.75,-283.1"/>
</g>
<!-- src/components/Header/index.jsx -->
<g id="node13" class="node">
<title>src/components/Header/index.jsx</title>
<g id="a_node13"><a xlink:href="src/components/Header/index.jsx" xlink:title="index.jsx">
<path fill="#ffff77" stroke="black" d="M90.5,-230C90.5,-230 48.5,-230 48.5,-230 45.5,-230 42.5,-227 42.5,-224 42.5,-224 42.5,-218 42.5,-218 42.5,-215 45.5,-212 48.5,-212 48.5,-212 90.5,-212 90.5,-212 93.5,-212 96.5,-215 96.5,-218 96.5,-218 96.5,-224 96.5,-224 96.5,-227 93.5,-230 90.5,-230"/>
<text text-anchor="middle" x="69.5" y="-218.8" font-family="Helvetica,sans-Serif" font-size="9.00">index.jsx</text>
</a>
</g>
</g>
<!-- src/components/Header/index.jsx&#45;&gt;src/components/Header/Header.jsx -->
<g id="edge9" class="edge">
<title>src/components/Header/index.jsx&#45;&gt;src/components/Header/Header.jsx</title>
<path fill="none" stroke="#000000" stroke-width="2" stroke-opacity="0.200000" d="M96.71,-221C106.81,-221 118.53,-221 129.4,-221"/>
<polygon fill="#000000" fill-opacity="0.200000" stroke="#000000" stroke-width="2" stroke-opacity="0.200000" points="129.69,-223.1 135.69,-221 129.69,-218.9 129.69,-223.1"/>
</g>
<!-- src/components/LoadingScreen/LoadingScreen.jsx -->
<g id="node14" class="node">
<title>src/components/LoadingScreen/LoadingScreen.jsx</title>
<g id="a_node14"><a xlink:href="src/components/LoadingScreen/LoadingScreen.jsx" xlink:title="LoadingScreen.jsx">
<path fill="#ffff77" stroke="black" d="M207,-170C207,-170 126,-170 126,-170 123,-170 120,-167 120,-164 120,-164 120,-158 120,-158 120,-155 123,-152 126,-152 126,-152 207,-152 207,-152 210,-152 213,-155 213,-158 213,-158 213,-164 213,-164 213,-167 210,-170 207,-170"/>
<text text-anchor="middle" x="166.5" y="-158.8" font-family="Helvetica,sans-Serif" font-size="9.00">LoadingScreen.jsx</text>
</a>
</g>
</g>
<!-- src/components/LoadingScreen/index.jsx -->
<g id="node15" class="node">
<title>src/components/LoadingScreen/index.jsx</title>
<g id="a_node15"><a xlink:href="src/components/LoadingScreen/index.jsx" xlink:title="index.jsx">
<path fill="#ffff77" stroke="black" d="M90.5,-170C90.5,-170 48.5,-170 48.5,-170 45.5,-170 42.5,-167 42.5,-164 42.5,-164 42.5,-158 42.5,-158 42.5,-155 45.5,-152 48.5,-152 48.5,-152 90.5,-152 90.5,-152 93.5,-152 96.5,-155 96.5,-158 96.5,-158 96.5,-164 96.5,-164 96.5,-167 93.5,-170 90.5,-170"/>
<text text-anchor="middle" x="69.5" y="-158.8" font-family="Helvetica,sans-Serif" font-size="9.00">index.jsx</text>
</a>
</g>
</g>
<!-- src/components/LoadingScreen/index.jsx&#45;&gt;src/components/LoadingScreen/LoadingScreen.jsx -->
<g id="edge10" class="edge">
<title>src/components/LoadingScreen/index.jsx&#45;&gt;src/components/LoadingScreen/LoadingScreen.jsx</title>
<path fill="none" stroke="#000000" stroke-width="2" stroke-opacity="0.200000" d="M96.71,-161C101.95,-161 107.63,-161 113.4,-161"/>
<polygon fill="#000000" fill-opacity="0.200000" stroke="#000000" stroke-width="2" stroke-opacity="0.200000" points="113.69,-163.1 119.69,-161 113.69,-158.9 113.69,-163.1"/>
</g>
<!-- src/components/SimpleMenu/SimpleMenu.jsx -->
<g id="node18" class="node">
<title>src/components/SimpleMenu/SimpleMenu.jsx</title>
<g id="a_node18"><a xlink:href="src/components/SimpleMenu/SimpleMenu.jsx" xlink:title="SimpleMenu.jsx">
<path fill="#ffff77" stroke="black" d="M201.5,-110C201.5,-110 131.5,-110 131.5,-110 128.5,-110 125.5,-107 125.5,-104 125.5,-104 125.5,-98 125.5,-98 125.5,-95 128.5,-92 131.5,-92 131.5,-92 201.5,-92 201.5,-92 204.5,-92 207.5,-95 207.5,-98 207.5,-98 207.5,-104 207.5,-104 207.5,-107 204.5,-110 201.5,-110"/>
<text text-anchor="middle" x="166.5" y="-98.8" font-family="Helvetica,sans-Serif" font-size="9.00">SimpleMenu.jsx</text>
</a>
</g>
</g>
<!-- src/components/SimpleMenu/SimpleMenu.scss -->
<g id="node19" class="node">
<title>src/components/SimpleMenu/SimpleMenu.scss</title>
<g id="a_node19"><a xlink:href="src/components/SimpleMenu/SimpleMenu.scss" xlink:title="SimpleMenu.scss">
<path fill="#ffffcc" stroke="black" d="M315,-110C315,-110 238,-110 238,-110 235,-110 232,-107 232,-104 232,-104 232,-98 232,-98 232,-95 235,-92 238,-92 238,-92 315,-92 315,-92 318,-92 321,-95 321,-98 321,-98 321,-104 321,-104 321,-107 318,-110 315,-110"/>
<text text-anchor="middle" x="276.5" y="-98.8" font-family="Helvetica,sans-Serif" font-size="9.00">SimpleMenu.scss</text>
</a>
</g>
</g>
<!-- src/components/SimpleMenu/SimpleMenu.jsx&#45;&gt;src/components/SimpleMenu/SimpleMenu.scss -->
<g id="edge13" class="edge">
<title>src/components/SimpleMenu/SimpleMenu.jsx&#45;&gt;src/components/SimpleMenu/SimpleMenu.scss</title>
<path fill="none" stroke="#000000" stroke-width="2" stroke-opacity="0.200000" d="M207.72,-101C213.65,-101 219.83,-101 225.93,-101"/>
<polygon fill="#000000" fill-opacity="0.200000" stroke="#000000" stroke-width="2" stroke-opacity="0.200000" points="225.99,-103.1 231.99,-101 225.99,-98.9 225.99,-103.1"/>
</g>
<!-- src/components/SimpleMenu/index.jsx -->
<g id="node20" class="node">
<title>src/components/SimpleMenu/index.jsx</title>
<g id="a_node20"><a xlink:href="src/components/SimpleMenu/index.jsx" xlink:title="index.jsx">
<path fill="#ffff77" stroke="black" d="M90.5,-110C90.5,-110 48.5,-110 48.5,-110 45.5,-110 42.5,-107 42.5,-104 42.5,-104 42.5,-98 42.5,-98 42.5,-95 45.5,-92 48.5,-92 48.5,-92 90.5,-92 90.5,-92 93.5,-92 96.5,-95 96.5,-98 96.5,-98 96.5,-104 96.5,-104 96.5,-107 93.5,-110 90.5,-110"/>
<text text-anchor="middle" x="69.5" y="-98.8" font-family="Helvetica,sans-Serif" font-size="9.00">index.jsx</text>
</a>
</g>
</g>
<!-- src/components/SimpleMenu/index.jsx&#45;&gt;src/components/SimpleMenu/SimpleMenu.jsx -->
<g id="edge14" class="edge">
<title>src/components/SimpleMenu/index.jsx&#45;&gt;src/components/SimpleMenu/SimpleMenu.jsx</title>
<path fill="none" stroke="#000000" stroke-width="2" stroke-opacity="0.200000" d="M96.71,-101C103.66,-101 111.38,-101 119.06,-101"/>
<polygon fill="#000000" fill-opacity="0.200000" stroke="#000000" stroke-width="2" stroke-opacity="0.200000" points="119.49,-103.1 125.49,-101 119.49,-98.9 119.49,-103.1"/>
</g>
<!-- src/components/VideoRelease/VideoRelease.jsx -->
<g id="node21" class="node">
<title>src/components/VideoRelease/VideoRelease.jsx</title>
<g id="a_node21"><a xlink:href="src/components/VideoRelease/VideoRelease.jsx" xlink:title="VideoRelease.jsx">
<path fill="#ffff77" stroke="black" d="M205,-50C205,-50 128,-50 128,-50 125,-50 122,-47 122,-44 122,-44 122,-38 122,-38 122,-35 125,-32 128,-32 128,-32 205,-32 205,-32 208,-32 211,-35 211,-38 211,-38 211,-44 211,-44 211,-47 208,-50 205,-50"/>
<text text-anchor="middle" x="166.5" y="-38.8" font-family="Helvetica,sans-Serif" font-size="9.00">VideoRelease.jsx</text>
</a>
</g>
</g>
<!-- src/components/VideoRelease/VideoRelease.scss -->
<g id="node22" class="node">
<title>src/components/VideoRelease/VideoRelease.scss</title>
<g id="a_node22"><a xlink:href="src/components/VideoRelease/VideoRelease.scss" xlink:title="VideoRelease.scss">
<path fill="#ffffcc" stroke="black" d="M318,-50C318,-50 235,-50 235,-50 232,-50 229,-47 229,-44 229,-44 229,-38 229,-38 229,-35 232,-32 235,-32 235,-32 318,-32 318,-32 321,-32 324,-35 324,-38 324,-38 324,-44 324,-44 324,-47 321,-50 318,-50"/>
<text text-anchor="middle" x="276.5" y="-38.8" font-family="Helvetica,sans-Serif" font-size="9.00">VideoRelease.scss</text>
</a>
</g>
</g>
<!-- src/components/VideoRelease/VideoRelease.jsx&#45;&gt;src/components/VideoRelease/VideoRelease.scss -->
<g id="edge15" class="edge">
<title>src/components/VideoRelease/VideoRelease.jsx&#45;&gt;src/components/VideoRelease/VideoRelease.scss</title>
<path fill="none" stroke="#000000" stroke-width="2" stroke-opacity="0.200000" d="M211.12,-41C214.96,-41 218.87,-41 222.78,-41"/>
<polygon fill="#000000" fill-opacity="0.200000" stroke="#000000" stroke-width="2" stroke-opacity="0.200000" points="222.9,-43.1 228.9,-41 222.9,-38.9 222.9,-43.1"/>
</g>
<!-- src/components/VideoRelease/index.jsx -->
<g id="node23" class="node">
<title>src/components/VideoRelease/index.jsx</title>
<g id="a_node23"><a xlink:href="src/components/VideoRelease/index.jsx" xlink:title="index.jsx">
<path fill="#ffff77" stroke="black" d="M90.5,-50C90.5,-50 48.5,-50 48.5,-50 45.5,-50 42.5,-47 42.5,-44 42.5,-44 42.5,-38 42.5,-38 42.5,-35 45.5,-32 48.5,-32 48.5,-32 90.5,-32 90.5,-32 93.5,-32 96.5,-35 96.5,-38 96.5,-38 96.5,-44 96.5,-44 96.5,-47 93.5,-50 90.5,-50"/>
<text text-anchor="middle" x="69.5" y="-38.8" font-family="Helvetica,sans-Serif" font-size="9.00">index.jsx</text>
</a>
</g>
</g>
<!-- src/components/VideoRelease/index.jsx&#45;&gt;src/components/VideoRelease/VideoRelease.jsx -->
<g id="edge16" class="edge">
<title>src/components/VideoRelease/index.jsx&#45;&gt;src/components/VideoRelease/VideoRelease.jsx</title>
<path fill="none" stroke="#000000" stroke-width="2" stroke-opacity="0.200000" d="M96.71,-41C102.68,-41 109.22,-41 115.81,-41"/>
<polygon fill="#000000" fill-opacity="0.200000" stroke="#000000" stroke-width="2" stroke-opacity="0.200000" points="115.87,-43.1 121.87,-41 115.87,-38.9 115.87,-43.1"/>
</g>
</g>
</svg>
